<svg width="79" height="78" viewBox="0 0 79 78" fill="none" xmlns="http://www.w3.org/2000/svg">
<g clip-path="url(#clip0_73_38)">
<mask id="mask0_73_38" style="mask-type:luminance" maskUnits="userSpaceOnUse" x="0" y="0" width="79" height="78">
<path d="M0.339355 7.62939e-06H78.3393V78H0.339355V7.62939e-06Z" fill="white"/>
</mask>
<g mask="url(#mask0_73_38)">
<path d="M19.7666 12.5008C18.2533 14.5774 17.1161 16.8676 16.3655 19.2632C19.9905 19.7711 23.4156 21.2847 26.1683 23.6975C34.3145 30.8378 46.6167 31.5412 55.6062 24.7611C57.7253 23.1629 59.4943 21.2728 60.9013 19.1898C60.132 16.7696 58.9495 14.4379 57.3487 12.2872C51.0619 3.8413 40.0732 0.885524 30.6066 4.34738" stroke="black" stroke-width="3.04687" stroke-miterlimit="10" stroke-linecap="round" stroke-linejoin="round"/>
<path d="M66.5011 25.0209C60.5693 17.0748 51.0924 11.93 40.414 11.93C37.1099 11.93 33.9208 12.4226 30.916 13.3383" stroke="black" stroke-width="3.04687" stroke-miterlimit="10" stroke-linecap="round" stroke-linejoin="round"/>
<path d="M45.5388 18.6271L51.3902 13.8282" stroke="black" stroke-width="3.04687" stroke-miterlimit="10" stroke-linecap="round" stroke-linejoin="round"/>
<path d="M41.1631 11.9391L37.2876 8.52238" stroke="black" stroke-width="3.04687" stroke-miterlimit="10" stroke-linecap="round" stroke-linejoin="round"/>
<path d="M16.1051 72.6326C20.7596 74.6196 25.7059 74.9537 30.2953 73.9277C28.9225 70.5344 28.5206 66.8114 29.2339 63.2209C31.3446 52.596 25.8025 41.5903 15.4361 37.1952C12.9924 36.1591 10.4711 35.5722 7.96365 35.3952C6.25222 37.2716 4.82415 39.4614 3.76201 41.9231C-1.33693 53.7418 4.1834 67.5432 16.1051 72.6326Z" stroke="black" stroke-width="3.04687" stroke-miterlimit="10" stroke-linecap="round" stroke-linejoin="round"/>
<path d="M10.2137 27.6301C6.29814 36.7401 6.58089 47.5198 11.9202 56.7677C13.5724 59.6291 15.5934 62.1446 17.8889 64.2889" stroke="black" stroke-width="3.04687" stroke-miterlimit="10" stroke-linecap="round" stroke-linejoin="round"/>
<path d="M15.158 48.981L8.07642 46.3128" stroke="black" stroke-width="3.04687" stroke-miterlimit="10" stroke-linecap="round" stroke-linejoin="round"/>
<path d="M11.5541 56.1144L10.533 61.1793" stroke="black" stroke-width="3.04687" stroke-miterlimit="10" stroke-linecap="round" stroke-linejoin="round"/>
<path d="M76.6447 47.4687C76.0384 42.4443 73.8544 37.9934 70.6713 34.5322C68.4189 37.4176 65.3955 39.6272 61.9295 40.8046C51.6728 44.2892 44.9126 54.5916 46.2895 65.7667C46.6141 68.4011 47.3664 70.8782 48.4669 73.1381C50.9475 73.6819 53.5581 73.8237 56.2211 73.5128C69.0057 72.0192 78.198 60.3378 76.6447 47.4687Z" stroke="black" stroke-width="3.04687" stroke-miterlimit="10" stroke-linecap="round" stroke-linejoin="round"/>
<path d="M40.6172 75.072C50.4647 73.908 59.6585 68.2732 64.9978 59.0253C66.65 56.1639 67.8179 53.1557 68.5272 50.0957" stroke="black" stroke-width="3.04687" stroke-miterlimit="10" stroke-linecap="round" stroke-linejoin="round"/>
<path d="M56.6355 60.115L57.8657 67.5818" stroke="black" stroke-width="3.04687" stroke-miterlimit="10" stroke-linecap="round" stroke-linejoin="round"/>
<path d="M64.6152 59.6693L69.5122 58.0212" stroke="black" stroke-width="3.04687" stroke-miterlimit="10" stroke-linecap="round" stroke-linejoin="round"/>
</g>
</g>
<defs>
<clipPath id="clip0_73_38">
<rect width="78" height="78" fill="white" transform="translate(0.339355)"/>
</clipPath>
</defs>
</svg>
