<svg width="78" height="78" viewBox="0 0 78 78" fill="none" xmlns="http://www.w3.org/2000/svg">
<path d="M34.6356 36.8438H13.6562C12.742 36.8438 12 36.1018 12 35.1875C12 34.2732 12.742 33.5312 13.6562 33.5312H34.6356C35.5498 33.5312 36.2918 34.2732 36.2918 35.1875C36.2918 36.1018 35.5498 36.8438 34.6356 36.8438Z" fill="black"/>
<path d="M26.3543 45.125C25.9302 45.125 25.5064 44.9637 25.1837 44.6394C24.5367 43.992 24.5367 42.9431 25.1837 42.2961L32.2948 35.1855L25.1837 28.0769C24.5367 27.4295 24.5367 26.3806 25.1837 25.7336C25.8307 25.0867 26.8796 25.0867 27.527 25.7336L35.8082 34.0149C36.4552 34.6619 36.4552 35.7108 35.8082 36.3581L27.527 44.6394C27.2023 44.9637 26.7781 45.125 26.3543 45.125Z" fill="black"/>
<path d="M47.3331 65.0001C44.8973 65.0001 42.9167 63.0191 42.9167 60.5833V20.8333C42.9167 18.9453 44.1181 17.2604 45.9066 16.6397L59.1744 12.2164C62.1423 11.3066 64.9999 13.5083 64.9999 16.4169V56.1669C64.9999 58.0528 63.7986 59.7354 62.0121 60.3581L48.7399 64.7838C48.2563 64.9338 47.8083 65.0001 47.3331 65.0001ZM60.5831 15.3126C60.4396 15.3126 60.3183 15.3304 60.1881 15.37L46.9757 19.7755C46.5426 19.9259 46.2292 20.363 46.2292 20.8333V60.5833C46.2292 61.3366 47.0461 61.8445 47.7286 61.6302L60.941 57.2247C61.3716 57.0743 61.6874 56.6372 61.6874 56.1669V16.4169C61.6874 15.8095 61.1929 15.3126 60.5831 15.3126Z" fill="black"/>
<path d="M31.323 23.0418C30.4087 23.0418 29.6667 22.2998 29.6667 21.3856V18.0731C29.6667 14.7229 32.3893 12 35.7394 12H60.5831C61.4974 12 62.2394 12.742 62.2394 13.6563C62.2394 14.5705 61.4974 15.3125 60.5831 15.3125H35.7394C34.2178 15.3125 32.9792 16.5515 32.9792 18.0731V21.3856C32.9792 22.2998 32.2373 23.0418 31.323 23.0418Z" fill="black"/>
<path d="M44.573 58.3751H35.7394C32.3893 58.3751 29.6667 55.6521 29.6667 52.302V48.9895C29.6667 48.0752 30.4087 47.3333 31.323 47.3333C32.2373 47.3333 32.9792 48.0752 32.9792 48.9895V52.302C32.9792 53.8236 34.2178 55.0626 35.7394 55.0626H44.573C45.4873 55.0626 46.2292 55.8046 46.2292 56.7188C46.2292 57.6331 45.4873 58.3751 44.573 58.3751Z" fill="black"/>
</svg>
