<svg width="79" height="78" viewBox="0 0 79 78" fill="none" xmlns="http://www.w3.org/2000/svg">
<g id="exchange 1" clip-path="url(#clip0_73_33)">
<path id="Vector" d="M77.2397 16.8693L46.8614 0.188267C46.405 -0.0622673 45.8515 -0.0622673 45.3951 0.188267L33.9449 6.47542C33.7033 6.5391 33.4778 6.6605 33.2909 6.83486L15.0174 16.8693C14.53 17.1365 14.2271 17.6483 14.2271 18.2047V38.3796C11.1445 39.3436 8.3196 41.0438 5.97077 43.3932C-0.151547 49.5149 -1.71248 58.8519 2.0866 66.6268C2.45556 67.3826 3.36783 67.6962 4.1236 67.3267C4.87996 66.9571 5.19298 66.0448 4.82403 65.2891C1.59624 58.6829 2.9227 50.7497 8.12501 45.5474C11.3784 42.2941 15.7035 40.5022 20.3042 40.5022C24.9048 40.5022 29.23 42.2941 32.4834 45.5474C35.7361 48.8002 37.528 53.1254 37.528 57.726C37.528 62.3267 35.7361 66.6518 32.4828 69.9052C27.2805 75.1075 19.3473 76.434 12.7411 73.2062C11.9854 72.8366 11.0731 73.1502 10.7041 73.906C10.3346 74.6624 10.6476 75.5746 11.404 75.9436C14.236 77.3278 17.2746 78.0002 20.2911 78.0002C25.5535 77.9997 30.7457 75.9513 34.6376 72.0594C36.4223 70.2747 37.8326 68.2157 38.8306 65.9776L45.3951 69.5821C45.6236 69.7076 45.8759 69.7701 46.1282 69.7701C46.3806 69.7701 46.6335 69.7076 46.8614 69.5821L77.2397 52.9016C77.7271 52.6338 78.03 52.122 78.03 51.5662V40.9789C78.03 40.1375 77.348 39.4555 76.5065 39.4555C75.6651 39.4555 74.9831 40.1375 74.9831 40.9789V50.6646L47.6564 65.6699V35.7844L56.6751 30.832V38.6825C56.6751 39.2216 56.9595 39.7203 57.4231 39.994C57.6623 40.1351 57.9301 40.2059 58.1985 40.2059C58.4508 40.2059 58.7037 40.1434 58.9328 40.0172L65.4426 36.4342C65.9294 36.1664 66.2311 35.6552 66.2311 35.1V25.5845L74.9831 20.7791V28.792C74.9831 29.6335 75.6651 30.3154 76.5065 30.3154C77.348 30.3154 78.03 29.6335 78.03 28.792V18.2047C78.03 17.6489 77.7271 17.1365 77.2397 16.8693ZM46.1282 3.26133L73.3412 18.2047L64.757 22.9184L37.544 7.97506L46.1282 3.26133ZM46.1282 33.1475L18.9152 18.2047L27.8143 13.3178L55.0279 28.2606L46.1282 33.1475ZM58.1926 26.5229L30.9796 11.5801L34.3787 9.71333L61.5923 24.6561L58.1926 26.5229ZM34.6376 43.3932C30.8088 39.5644 25.7183 37.456 20.3042 37.456C19.28 37.456 18.2684 37.5315 17.274 37.6797V20.7791L44.6102 35.7897V65.6753L39.8655 63.07C40.3326 61.3501 40.5742 59.5565 40.5742 57.726C40.5742 52.3119 38.4658 47.2214 34.6376 43.3932ZM63.1848 34.1996L59.7219 36.1057V29.1592L63.1848 27.2579V34.1996Z" fill="black"/>
<path id="Vector_2" d="M76.5063 33.3544C76.1059 33.3544 75.7125 33.5174 75.4292 33.8007C75.146 34.084 74.9829 34.4767 74.9829 34.8778C74.9829 35.2783 75.146 35.6711 75.4292 35.9543C75.7125 36.2382 76.1059 36.4007 76.5063 36.4007C76.9068 36.4007 77.3002 36.2382 77.5835 35.9543C77.8667 35.6711 78.0298 35.2783 78.0298 34.8778C78.0298 34.4767 77.8667 34.084 77.5835 33.8007C77.3002 33.5174 76.9068 33.3544 76.5063 33.3544Z" fill="black"/>
<path id="Vector_3" d="M15.1814 59.2492C15.5712 59.2492 15.9616 59.1004 16.2586 58.8035C16.8537 58.2084 16.8537 57.2438 16.2586 56.6487L15.2035 55.593H24.2072C26.3912 55.593 28.1682 57.3699 28.1682 59.5539C28.1682 61.7379 26.3912 63.5148 24.2072 63.5148H18.8722C18.0307 63.5148 17.3488 64.1968 17.3488 65.0383C17.3488 65.8792 18.0307 66.5611 18.8722 66.5611H24.2072C28.0712 66.5611 31.215 63.4178 31.215 59.5539C31.215 55.69 28.0712 52.5467 24.2072 52.5467H15.2035L16.2586 51.491C16.8537 50.8959 16.8537 49.9313 16.2586 49.3362C15.6641 48.7417 14.6994 48.7417 14.1043 49.3362L10.4481 52.9924C9.85357 53.5875 9.85357 54.5522 10.4481 55.1472L14.1043 58.8029C14.4019 59.1004 14.7917 59.2492 15.1814 59.2492Z" fill="black"/>
<path id="Vector_4" d="M7.04905 72.5079C6.61582 72.5079 6.18557 72.3235 5.88504 71.9658L5.88207 71.9622C5.34053 71.3184 5.42385 70.3579 6.06774 69.8163C6.71163 69.2742 7.6727 69.3575 8.21424 70.0014C8.75518 70.6459 8.67365 71.6082 8.02976 72.1497C7.74352 72.3901 7.39539 72.5079 7.04905 72.5079Z" fill="black"/>
</g>
<defs>
<clipPath id="clip0_73_33">
<rect width="78" height="78" fill="white" transform="translate(0.0297852)"/>
</clipPath>
</defs>
</svg>
