<svg width="18" height="20" viewBox="0 0 18 20" fill="none" xmlns="http://www.w3.org/2000/svg">
<g id="instagram logo" clip-path="url(#clip0_63_236)">
<path id="Vector" d="M8.95367 5.80548C6.56868 5.80548 4.64493 7.69917 4.64493 10.0469C4.64493 12.3946 6.56868 14.2883 8.95367 14.2883C11.3387 14.2883 13.2624 12.3946 13.2624 10.0469C13.2624 7.69917 11.3387 5.80548 8.95367 5.80548ZM8.95367 12.8044C7.41243 12.8044 6.15243 11.5678 6.15243 10.0469C6.15243 8.52605 7.40868 7.28943 8.95367 7.28943C10.4987 7.28943 11.7549 8.52605 11.7549 10.0469C11.7549 11.5678 10.4949 12.8044 8.95367 12.8044ZM14.4437 5.63198C14.4437 6.182 13.9937 6.62128 13.4387 6.62128C12.8799 6.62128 12.4337 6.17831 12.4337 5.63198C12.4337 5.08566 12.8837 4.64269 13.4387 4.64269C13.9937 4.64269 14.4437 5.08566 14.4437 5.63198ZM17.2974 6.63605C17.2337 5.31083 16.9262 4.13697 15.9399 3.16982C14.9574 2.20267 13.7649 1.89998 12.4187 1.83353C11.0312 1.75601 6.87243 1.75601 5.48493 1.83353C4.14243 1.89628 2.94993 2.19898 1.96368 3.16613C0.977431 4.13327 0.673682 5.30714 0.606182 6.63236C0.527432 7.99817 0.527432 12.0919 0.606182 13.4578C0.669932 14.783 0.977431 15.9568 1.96368 16.924C2.94993 17.8911 4.13868 18.1938 5.48493 18.2603C6.87243 18.3378 11.0312 18.3378 12.4187 18.2603C13.7649 18.1975 14.9574 17.8948 15.9399 16.924C16.9224 15.9568 17.2299 14.783 17.2974 13.4578C17.3762 12.0919 17.3762 8.00187 17.2974 6.63605ZM15.5049 14.9232C15.2124 15.6468 14.6462 16.2042 13.9074 16.4958C12.8012 16.9277 10.1762 16.828 8.95367 16.828C7.73118 16.828 5.10243 16.924 3.99993 16.4958C3.26493 16.2079 2.69868 15.6505 2.40243 14.9232C1.96368 13.8343 2.06493 11.2503 2.06493 10.0469C2.06493 8.84351 1.96743 6.25583 2.40243 5.17056C2.69493 4.44704 3.26118 3.88964 3.99993 3.59802C5.10618 3.16613 7.73118 3.26579 8.95367 3.26579C10.1762 3.26579 12.8049 3.16982 13.9074 3.59802C14.6424 3.88595 15.2087 4.44335 15.5049 5.17056C15.9437 6.25952 15.8424 8.84351 15.8424 10.0469C15.8424 11.2503 15.9437 13.838 15.5049 14.9232Z" fill="white"/>
</g>
<defs>
<clipPath id="clip0_63_236">
<rect width="16.8" height="18.9" fill="white" transform="translate(0.550049 0.600342)"/>
</clipPath>
</defs>
</svg>
