<svg width="18" height="17" viewBox="0 0 18 17" fill="none" xmlns="http://www.w3.org/2000/svg">
<g id="linkedin logo" clip-path="url(#clip0_63_240)">
<path id="Vector" d="M4.41442 16.4009V5.77439H0.812603V16.4009H4.41442ZM2.61398 4.32264C3.86999 4.32264 4.6518 3.50665 4.6518 2.48694C4.6284 1.44422 3.87004 0.650879 2.63781 0.650879C1.40577 0.650879 0.600098 1.44424 0.600098 2.48694C0.600098 3.5067 1.38172 4.32264 2.59046 4.32264H2.61387H2.61398ZM6.40801 16.4009H10.0098V10.4665C10.0098 10.1489 10.0332 9.83166 10.1283 9.60463C10.3887 8.97008 10.9814 8.31286 11.9763 8.31286C13.2797 8.31286 13.8011 9.28734 13.8011 10.7159V16.4008H17.4027V10.3077C17.4027 7.04363 15.6258 5.52491 13.256 5.52491C11.3129 5.52491 10.4598 6.58995 9.98587 7.31535H10.0099V5.77416H6.4081C6.45536 6.7713 6.4081 16.4007 6.4081 16.4007L6.40801 16.4009Z" fill="white"/>
</g>
<defs>
<clipPath id="clip0_63_240">
<rect width="16.8" height="15.75" fill="white" transform="translate(0.600098 0.650879)"/>
</clipPath>
</defs>
</svg>
