<svg width="78" height="78" viewBox="0 0 78 78" fill="none" xmlns="http://www.w3.org/2000/svg">
<g id="phone-call 1">
<path id="Vector" d="M53.1834 48.4541C52.6736 47.9426 52.0679 47.5367 51.4009 47.2597C50.7339 46.9827 50.0188 46.8402 49.2966 46.8402C48.5744 46.8402 47.8593 46.9827 47.1923 47.2597C46.5253 47.5367 45.9195 47.9426 45.4097 48.4541L42.7575 51.1063C39.7713 49.2111 37.0046 46.9904 34.5082 44.485C32.0081 41.9838 29.7879 39.2177 27.8869 36.2357L30.5391 33.5835C31.0506 33.0737 31.4565 32.4679 31.7335 31.8009C32.0105 31.1339 32.153 30.4188 32.153 29.6966C32.153 28.9744 32.0105 28.2593 31.7335 27.5923C31.4565 26.9253 31.0506 26.3196 30.5391 25.8098L25.3627 20.6517C24.8601 20.1384 24.2595 19.7315 23.5965 19.4549C22.9335 19.1784 22.2216 19.038 21.5033 19.0421C20.7799 19.0403 20.0632 19.1816 19.3946 19.4578C18.7259 19.7341 18.1185 20.1398 17.6073 20.6517L15.1197 23.121C13.934 24.3958 13.0491 25.9202 12.53 27.5819C12.0109 29.2437 11.8708 31.0007 12.12 32.7238C12.7053 39.583 17.2049 47.8322 24.1372 54.7828C31.0695 61.7334 39.4103 66.2147 46.2694 66.8732C46.7812 66.9006 47.2941 66.9006 47.8059 66.8732C49.2824 66.9352 50.7564 66.7018 52.1415 66.1867C53.5266 65.6716 54.795 64.8852 55.8722 63.8735L58.3415 61.3859C58.8534 60.8747 59.2591 60.2673 59.5354 59.5986C59.8116 58.93 59.9529 58.2134 59.9511 57.4899C59.9552 56.7716 59.8148 56.0597 59.5383 55.3967C59.2618 54.7337 58.8548 54.1331 58.3415 53.6305L53.1834 48.4541ZM55.7625 58.8069L53.2749 61.2762C52.3551 62.0427 51.2814 62.6027 50.1264 62.9183C48.9714 63.2339 47.7621 63.2976 46.5804 63.1053C40.6358 62.5931 33.0633 58.3862 26.8077 52.1306C20.5522 45.8751 16.3452 38.3574 15.7782 32.4129C15.5809 31.2311 15.6423 30.0206 15.9581 28.8649C16.2739 27.7091 16.8365 26.6356 17.6073 25.7183L20.1863 23.2307C20.3572 23.0612 20.5599 22.9271 20.7828 22.8361C21.0057 22.745 21.2443 22.6989 21.485 22.7003C21.7257 22.6989 21.9644 22.745 22.1872 22.8361C22.4101 22.9271 22.6128 23.0612 22.7837 23.2307L27.96 28.462C28.3007 28.8047 28.4919 29.2683 28.4919 29.7515C28.4919 30.2347 28.3007 30.6983 27.96 31.041L24.3018 34.6992C24.0156 34.9841 23.8316 35.3557 23.7787 35.756C23.7257 36.1564 23.8068 36.563 24.0092 36.9125C26.1993 40.641 28.8613 44.0714 31.9292 47.1189C34.9766 50.1868 38.4071 52.8487 42.1356 55.0389C42.4851 55.2413 42.8917 55.3223 43.2921 55.2694C43.6924 55.2164 44.064 55.0325 44.3488 54.7463L48.0071 51.088C48.3498 50.7474 48.8134 50.5561 49.2966 50.5561C49.7798 50.5561 50.2434 50.7474 50.5861 51.088L55.7625 56.2644C55.932 56.4353 56.0661 56.638 56.1571 56.8609C56.2482 57.0837 56.2943 57.3223 56.2929 57.5631C56.2815 58.0302 56.0917 58.4752 55.7625 58.8069Z" fill="black"/>
<path id="Vector_2" d="M58.9452 20.0298C56.4032 17.4782 53.3813 15.4549 50.0536 14.0768C46.7259 12.6986 43.1584 11.9928 39.5566 12.0001C39.0715 12.0001 38.6063 12.1928 38.2633 12.5358C37.9202 12.8788 37.7275 13.3441 37.7275 13.8292C37.7275 14.3143 37.9202 14.7795 38.2633 15.1225C38.6063 15.4656 39.0715 15.6583 39.5566 15.6583C42.6963 15.6582 45.8048 16.2798 48.703 17.4873C51.6011 18.6949 54.2314 20.4644 56.442 22.6938C58.6527 24.9232 60.4 27.5683 61.5831 30.4765C62.7662 33.3847 63.3616 36.4984 63.335 39.6379C63.335 40.123 63.5277 40.5882 63.8708 40.9312C64.2138 41.2743 64.679 41.467 65.1641 41.467C65.6493 41.467 66.1145 41.2743 66.4575 40.9312C66.8005 40.5882 66.9933 40.123 66.9933 39.6379C67.0283 35.9978 66.3342 32.3876 64.952 29.02C63.5698 25.6524 61.5274 22.5956 58.9452 20.0298Z" fill="black"/>
<path id="Vector_3" d="M48.5374 30.4925C49.5755 31.5243 50.3967 32.7533 50.9527 34.1071C51.5087 35.461 51.7882 36.9124 51.7749 38.376C51.7749 38.8611 51.9676 39.3263 52.3107 39.6693C52.6537 40.0124 53.1189 40.2051 53.604 40.2051C54.0892 40.2051 54.5544 40.0124 54.8974 39.6693C55.2404 39.3263 55.4332 38.8611 55.4332 38.376C55.4574 36.439 55.0968 34.5165 54.3722 32.72C53.6477 30.9235 52.5737 29.2887 51.2125 27.9105C49.8513 26.5323 48.23 25.4381 46.4426 24.6913C44.6553 23.9445 42.7374 23.56 40.8003 23.5602C40.3152 23.5602 39.8499 23.7529 39.5069 24.0959C39.1639 24.4389 38.9712 24.9042 38.9712 25.3893C38.9712 25.8744 39.1639 26.3396 39.5069 26.6827C39.8499 27.0257 40.3152 27.2184 40.8003 27.2184C42.2418 27.2293 43.667 27.524 44.9946 28.0858C46.3221 28.6475 47.526 29.4654 48.5374 30.4925Z" fill="black"/>
</g>
</svg>
