<svg width="80" height="80" viewBox="0 0 80 80" fill="none" xmlns="http://www.w3.org/2000/svg">
<circle cx="40" cy="40" r="40" fill="#0E0E0E"/>
<path d="M49.8646 47.4088C49.4921 47.0349 49.0494 46.7383 48.562 46.5359C48.0746 46.3335 47.552 46.2293 47.0242 46.2293C46.4965 46.2293 45.9739 46.3335 45.4865 46.5359C44.9991 46.7383 44.5564 47.0349 44.1838 47.4088L42.2457 49.3469C40.0635 47.9619 38.0417 46.3391 36.2174 44.5082C34.3903 42.6805 32.7679 40.6591 31.3787 38.4799L33.3168 36.5418C33.6907 36.1692 33.9873 35.7265 34.1897 35.2391C34.3921 34.7517 34.4963 34.2291 34.4963 33.7014C34.4963 33.1736 34.3921 32.651 34.1897 32.1636C33.9873 31.6762 33.6907 31.2335 33.3168 30.861L29.5341 27.0916C29.1668 26.7165 28.7279 26.4191 28.2434 26.2171C27.7589 26.015 27.2387 25.9124 26.7138 25.9153C26.1851 25.9141 25.6614 26.0173 25.1728 26.2192C24.6842 26.421 24.2403 26.7175 23.8667 27.0916L22.0488 28.8961C21.1824 29.8277 20.5357 30.9416 20.1563 32.156C19.777 33.3704 19.6746 34.6544 19.8567 35.9135C20.2844 40.926 23.5726 46.9543 28.6385 52.0336C33.7045 57.1129 39.7996 60.3877 44.8121 60.8689C45.1861 60.8889 45.5609 60.8889 45.9349 60.8689C47.0138 60.9142 48.091 60.7436 49.1032 60.3672C50.1154 59.9908 51.0423 59.4161 51.8295 58.6768L53.634 56.8589C54.0081 56.4853 54.3046 56.0414 54.5064 55.5528C54.7083 55.0642 54.8115 54.5405 54.8102 54.0118C54.8132 53.4869 54.7106 52.9667 54.5085 52.4822C54.3065 51.9977 54.0091 51.5588 53.634 51.1915L49.8646 47.4088ZM51.7493 54.9742L49.9315 56.7787C49.2593 57.3389 48.4747 57.7481 47.6307 57.9787C46.7866 58.2093 45.9029 58.2559 45.0393 58.1154C40.6952 57.7411 35.1614 54.6668 30.5901 50.0954C26.0187 45.5241 22.9444 40.0304 22.53 35.6863C22.3859 34.8227 22.4307 33.9381 22.6615 33.0935C22.8923 32.2489 23.3034 31.4645 23.8667 30.7941L25.7514 28.9763C25.8763 28.8524 26.0244 28.7544 26.1872 28.6879C26.3501 28.6214 26.5245 28.5876 26.7004 28.5887C26.8763 28.5876 27.0507 28.6214 27.2135 28.6879C27.3764 28.7544 27.5245 28.8524 27.6494 28.9763L31.4322 32.7991C31.6811 33.0496 31.8208 33.3883 31.8208 33.7415C31.8208 34.0946 31.6811 34.4334 31.4322 34.6838L28.7588 37.3571C28.5497 37.5653 28.4152 37.8368 28.3765 38.1294C28.3379 38.4219 28.3971 38.7191 28.545 38.9745C30.1455 41.6992 32.0908 44.206 34.3327 46.433C36.5597 48.6749 39.0665 50.6202 41.7912 52.2207C42.0466 52.3686 42.3438 52.4278 42.6363 52.3892C42.9289 52.3505 43.2004 52.216 43.4086 52.0069L46.0819 49.3335C46.3323 49.0846 46.6711 48.9449 47.0242 48.9449C47.3774 48.9449 47.7161 49.0846 47.9666 49.3335L51.7493 53.1163C51.8732 53.2412 51.9712 53.3893 52.0377 53.5522C52.1042 53.715 52.138 53.8894 52.1369 54.0653C52.1286 54.4067 51.9899 54.7319 51.7493 54.9742Z" fill="white"/>
<path d="M54.0755 26.6372C52.2179 24.7726 50.0096 23.2941 47.5778 22.2869C45.1461 21.2798 42.539 20.764 39.907 20.7693C39.5525 20.7693 39.2125 20.9102 38.9618 21.1608C38.7111 21.4115 38.5703 21.7515 38.5703 22.106C38.5703 22.4605 38.7111 22.8005 38.9618 23.0511C39.2125 23.3018 39.5525 23.4426 39.907 23.4426C42.2013 23.4426 44.473 23.8968 46.5908 24.7793C48.7087 25.6617 50.6308 26.9548 52.2463 28.584C53.8618 30.2131 55.1387 32.1461 56.0032 34.2713C56.8678 36.3965 57.3029 38.6719 57.2835 40.9662C57.2835 41.3207 57.4243 41.6607 57.675 41.9113C57.9257 42.162 58.2656 42.3028 58.6201 42.3028C58.9746 42.3028 59.3146 42.162 59.5653 41.9113C59.816 41.6607 59.9568 41.3207 59.9568 40.9662C59.9824 38.3062 59.4752 35.6679 58.4651 33.207C57.455 30.7461 55.9625 28.5123 54.0755 26.6372Z" fill="white"/>
<path d="M46.4697 34.283C47.2283 35.037 47.8284 35.9351 48.2347 36.9244C48.641 37.9138 48.8453 38.9744 48.8356 40.0439C48.8356 40.3985 48.9764 40.7384 49.2271 40.9891C49.4778 41.2398 49.8177 41.3806 50.1722 41.3806C50.5267 41.3806 50.8667 41.2398 51.1174 40.9891C51.3681 40.7384 51.5089 40.3985 51.5089 40.0439C51.5266 38.6285 51.2631 37.2236 50.7336 35.9108C50.2042 34.5979 49.4193 33.4033 48.4246 32.3961C47.4298 31.389 46.245 30.5893 44.9389 30.0436C43.6327 29.4979 42.2312 29.2169 40.8157 29.217C40.4612 29.217 40.1212 29.3579 39.8705 29.6085C39.6198 29.8592 39.479 30.1992 39.479 30.5537C39.479 30.9082 39.6198 31.2482 39.8705 31.4989C40.1212 31.7495 40.4612 31.8904 40.8157 31.8904C41.8691 31.8983 42.9106 32.1137 43.8807 32.5242C44.8508 32.9347 45.7306 33.5324 46.4697 34.283Z" fill="white"/>
</svg>
