<svg width="79" height="78" viewBox="0 0 79 78" fill="none" xmlns="http://www.w3.org/2000/svg">
<g id="clothes-hanger 1">
<path id="Vector" d="M75.3315 59.0898L41.3282 35.2809V32.3932C41.3282 31.6392 41.7753 31.0308 42.4947 30.805C46.6852 29.4914 49.5007 25.6559 49.5007 21.2611C49.5007 15.7467 45.0144 11.2604 39.4999 11.2604C33.9854 11.2604 29.4991 15.7466 29.4991 21.2611C29.4991 22.2709 30.3177 23.0893 31.3273 23.0893C32.337 23.0893 33.1554 22.2709 33.1554 21.2611C33.1554 17.7627 36.0015 14.9166 39.4999 14.9166C42.9983 14.9166 45.8444 17.7627 45.8444 21.2611C45.8444 24.0498 44.0586 26.483 41.4008 27.3163C39.1705 28.0154 37.6719 30.0558 37.6719 32.3932V35.2809L3.66865 59.0898C2.15785 60.1476 1.51542 62.0402 2.0701 63.7992C2.62479 65.558 4.23643 66.7397 6.08055 66.7397H72.9195C74.7637 66.7397 76.3755 65.558 76.93 63.7992C77.4847 62.0402 76.8422 60.1476 75.3315 59.0898ZM73.4432 62.6996C73.3662 62.9435 73.1753 63.0835 72.9195 63.0835H6.08055C5.82477 63.0835 5.63388 62.9435 5.55695 62.6996C5.48001 62.4555 5.55618 62.2315 5.76566 62.0848L39.5 38.4642L73.2344 62.0848C73.4439 62.2315 73.5201 62.4556 73.4432 62.6996Z" fill="black"/>
</g>
</svg>
