<svg width="24" height="24" viewBox="0 0 24 24" fill="none" xmlns="http://www.w3.org/2000/svg">
<g id="basil:envelope-solid">
<path id="Vector" d="M7.28994 4.90791C10.424 4.63552 13.5759 4.63552 16.7099 4.90791L18.2209 5.03791C18.7054 5.08008 19.1715 5.24389 19.5758 5.51415C19.9801 5.7844 20.3097 6.15236 20.5339 6.58391C20.5602 6.63715 20.5653 6.69831 20.5485 6.7552C20.5316 6.81209 20.4939 6.86055 20.4429 6.89091L14.1769 10.7709C13.5175 11.1792 12.7588 11.3992 11.9832 11.4072C11.2076 11.4151 10.4446 11.2106 9.77694 10.8159L3.46994 7.08791C3.42023 7.0598 3.38239 7.01462 3.36345 6.96074C3.34451 6.90686 3.34575 6.84794 3.36694 6.79491C3.57123 6.3103 3.90392 5.89066 4.32915 5.58121C4.75437 5.27176 5.256 5.08426 5.77994 5.03891L7.28994 4.90791Z" fill="white"/>
<path id="Vector_2" d="M3.36206 8.76689C3.32632 8.74572 3.28585 8.73387 3.24434 8.73241C3.20284 8.73096 3.16163 8.73995 3.1245 8.75856C3.08738 8.77717 3.05552 8.80481 3.03185 8.83894C3.00819 8.87307 2.99347 8.9126 2.98906 8.95389C2.73498 11.4717 2.79679 14.0114 3.17306 16.5139C3.26989 17.1551 3.57971 17.745 4.05262 18.1887C4.52552 18.6324 5.134 18.9041 5.78006 18.9599L7.29006 19.0909C10.4251 19.3639 13.5771 19.3639 16.7121 19.0909L18.2221 18.9609C18.8684 18.9047 19.477 18.6326 19.9497 18.1883C20.4225 17.744 20.7319 17.1535 20.8281 16.5119C21.2153 13.9365 21.2694 11.3221 20.9891 8.73289C20.9842 8.69143 20.969 8.65185 20.9448 8.61784C20.9206 8.58383 20.8881 8.55649 20.8505 8.53834C20.813 8.52019 20.7714 8.51182 20.7297 8.51401C20.688 8.51621 20.6475 8.52889 20.6121 8.55089L14.9671 12.0449C14.075 12.5969 13.049 12.8944 12.0001 12.9052C10.9511 12.9159 9.91919 12.6395 9.01606 12.1059L3.36306 8.76589L3.36206 8.76689Z" fill="white"/>
</g>
</svg>
