<svg width="80" height="80" viewBox="0 0 80 80" fill="none" xmlns="http://www.w3.org/2000/svg">
<circle cx="40" cy="40" r="40" fill="#0E0E0E"/>
<path d="M26.624 50.9999H22.124C21.503 50.9999 20.999 50.4959 20.999 49.8749C20.999 49.2539 21.503 48.7499 22.124 48.7499H26.624C27.245 48.7499 27.749 49.2539 27.749 49.8749C27.749 50.4959 27.245 50.9999 26.624 50.9999Z" fill="white"/>
<path d="M63.1868 51.0001H60.3743C59.7533 51.0001 59.2493 50.4961 59.2493 49.8751C59.2493 49.2541 59.7533 48.7501 60.3743 48.7501H62.253L63.7696 40.6681C63.7493 36.5326 60.2168 33.0001 55.8743 33.0001H48.4875L44.9078 48.7501H51.3743C51.9953 48.7501 52.4993 49.2541 52.4993 49.8751C52.4993 50.4961 51.9953 51.0001 51.3743 51.0001H43.4993C43.1573 51.0001 42.8333 50.8449 42.6195 50.5771C42.4058 50.3116 42.3248 49.9606 42.4013 49.6276L46.4918 31.6276C46.6088 31.1124 47.0633 30.7501 47.5898 30.7501H55.8743C61.4566 30.7501 65.9993 35.2929 65.9993 40.8751L64.2915 50.0821C64.1926 50.6154 63.7291 51.0001 63.1868 51.0001Z" fill="white"/>
<path d="M55.876 55.5001C52.7755 55.5001 50.251 52.9779 50.251 49.8751C50.251 46.7724 52.7755 44.2501 55.876 44.2501C58.9765 44.2501 61.501 46.7724 61.501 49.8751C61.501 52.9779 58.9765 55.5001 55.876 55.5001ZM55.876 46.5001C54.0152 46.5001 52.501 48.0144 52.501 49.8751C52.501 51.7359 54.0152 53.2501 55.876 53.2501C57.7367 53.2501 59.251 51.7359 59.251 49.8751C59.251 48.0144 57.7367 46.5001 55.876 46.5001Z" fill="white"/>
<path d="M31.125 55.5001C28.0245 55.5001 25.5 52.9779 25.5 49.8751C25.5 46.7724 28.0245 44.2501 31.125 44.2501C34.2255 44.2501 36.75 46.7724 36.75 49.8751C36.75 52.9779 34.2255 55.5001 31.125 55.5001ZM31.125 46.5001C29.2643 46.5001 27.75 48.0144 27.75 49.8751C27.75 51.7359 29.2643 53.2501 31.125 53.2501C32.9858 53.2501 34.5 51.7359 34.5 49.8751C34.5 48.0144 32.9858 46.5001 31.125 46.5001Z" fill="white"/>
<path d="M26.626 30.75H17.626C17.005 30.75 16.501 30.246 16.501 29.625C16.501 29.004 17.005 28.5 17.626 28.5H26.626C27.247 28.5 27.751 29.004 27.751 29.625C27.751 30.246 27.247 30.75 26.626 30.75Z" fill="white"/>
<path d="M26.625 37.5H15.375C14.754 37.5 14.25 36.996 14.25 36.375C14.25 35.754 14.754 35.25 15.375 35.25H26.625C27.246 35.25 27.75 35.754 27.75 36.375C27.75 36.996 27.246 37.5 26.625 37.5Z" fill="white"/>
<path d="M26.625 44.25H13.125C12.504 44.25 12 43.746 12 43.125C12 42.504 12.504 42 13.125 42H26.625C27.246 42 27.75 42.504 27.75 43.125C27.75 43.746 27.246 44.25 26.625 44.25Z" fill="white"/>
<path d="M43.499 51H35.624C35.003 51 34.499 50.496 34.499 49.875C34.499 49.254 35.003 48.75 35.624 48.75H42.6013L47.7133 26.25H22.124C21.503 26.25 20.999 25.746 20.999 25.125C20.999 24.504 21.503 24 22.124 24H49.1241C49.4661 24 49.7901 24.1553 50.0038 24.423C50.2176 24.6885 50.2986 25.0395 50.2221 25.3725L44.597 50.1225C44.48 50.6378 44.0233 51 43.499 51Z" fill="white"/>
</svg>
