<svg width="78" height="78" viewBox="0 0 78 78" fill="none" xmlns="http://www.w3.org/2000/svg">
<g id="fast 1">
<path id="Vector" d="M21.125 61.75H14.625C13.728 61.75 13 61.022 13 60.125C13 59.228 13.728 58.5 14.625 58.5H21.125C22.022 58.5 22.75 59.228 22.75 60.125C22.75 61.022 22.022 61.75 21.125 61.75Z" fill="#0E0E0E"/>
<path id="Vector_2" d="M73.9376 61.75H69.8751C68.9781 61.75 68.2501 61.022 68.2501 60.125C68.2501 59.228 68.9781 58.5 69.8751 58.5H72.5888L74.7793 46.826C74.7501 40.8525 69.6476 35.75 63.3751 35.75H52.7053L47.5346 58.5H56.8751C57.7721 58.5 58.5001 59.228 58.5001 60.125C58.5001 61.022 57.7721 61.75 56.8751 61.75H45.5001C45.0061 61.75 44.5381 61.5258 44.2293 61.139C43.9206 60.7555 43.8036 60.2485 43.9141 59.7675L49.8226 33.7675C49.9916 33.0233 50.6481 32.5 51.4086 32.5H63.3751C71.4383 32.5 78.0001 39.0618 78.0001 47.125L75.5333 60.424C75.3903 61.1942 74.7208 61.75 73.9376 61.75Z" fill="#0E0E0E"/>
<path id="Vector_3" d="M63.375 68.25C58.8965 68.25 55.25 64.6067 55.25 60.125C55.25 55.6433 58.8965 52 63.375 52C67.8535 52 71.5 55.6433 71.5 60.125C71.5 64.6067 67.8535 68.25 63.375 68.25ZM63.375 55.25C60.6873 55.25 58.5 57.4373 58.5 60.125C58.5 62.8127 60.6873 65 63.375 65C66.0627 65 68.25 62.8127 68.25 60.125C68.25 57.4373 66.0627 55.25 63.375 55.25Z" fill="#0E0E0E"/>
<path id="Vector_4" d="M27.625 68.25C23.1465 68.25 19.5 64.6067 19.5 60.125C19.5 55.6433 23.1465 52 27.625 52C32.1035 52 35.75 55.6433 35.75 60.125C35.75 64.6067 32.1035 68.25 27.625 68.25ZM27.625 55.25C24.9373 55.25 22.75 57.4373 22.75 60.125C22.75 62.8127 24.9373 65 27.625 65C30.3127 65 32.5 62.8127 32.5 60.125C32.5 57.4373 30.3127 55.25 27.625 55.25Z" fill="#0E0E0E"/>
<path id="Vector_5" d="M21.125 32.5H8.125C7.228 32.5 6.5 31.772 6.5 30.875C6.5 29.978 7.228 29.25 8.125 29.25H21.125C22.022 29.25 22.75 29.978 22.75 30.875C22.75 31.772 22.022 32.5 21.125 32.5Z" fill="#0E0E0E"/>
<path id="Vector_6" d="M21.125 42.25H4.875C3.978 42.25 3.25 41.522 3.25 40.625C3.25 39.728 3.978 39 4.875 39H21.125C22.022 39 22.75 39.728 22.75 40.625C22.75 41.522 22.022 42.25 21.125 42.25Z" fill="#0E0E0E"/>
<path id="Vector_7" d="M21.125 52H1.625C0.728 52 0 51.272 0 50.375C0 49.478 0.728 48.75 1.625 48.75H21.125C22.022 48.75 22.75 49.478 22.75 50.375C22.75 51.272 22.022 52 21.125 52Z" fill="#0E0E0E"/>
<path id="Vector_8" d="M45.5 61.75H34.125C33.228 61.75 32.5 61.022 32.5 60.125C32.5 59.228 33.228 58.5 34.125 58.5H44.2032L51.5872 26H14.625C13.728 26 13 25.272 13 24.375C13 23.478 13.728 22.75 14.625 22.75H53.625C54.119 22.75 54.587 22.9743 54.8958 23.361C55.2045 23.7445 55.3215 24.2515 55.211 24.7325L47.086 60.4825C46.917 61.2268 46.2573 61.75 45.5 61.75Z" fill="#0E0E0E"/>
</g>
</svg>
