<svg width="19" height="18" viewBox="0 0 19 18" fill="none" xmlns="http://www.w3.org/2000/svg">
<g id="Google, Brand">
<path id="coolicon" d="M9.46703 7.76692V10.3552H13.061C12.7265 11.9999 11.3263 12.9449 9.46703 12.9449C7.30144 12.9151 5.56153 11.1511 5.56153 8.9853C5.56153 6.8195 7.30144 5.05548 9.46703 5.02567C10.3672 5.0246 11.2396 5.33698 11.9345 5.90917L13.8845 3.95917C11.6477 1.99272 8.38103 1.7398 5.8682 3.33851C3.35536 4.93721 2.2003 8.00333 3.03372 10.8626C3.86714 13.7219 6.48874 15.6872 9.46703 15.6854C12.8173 15.6854 15.8638 13.2487 15.8638 8.98492C15.8586 8.5744 15.8083 8.1657 15.7138 7.76617L9.46703 7.76692Z" fill="white"/>
</g>
</svg>
