<svg width="20" height="20" viewBox="0 0 20 20" fill="none" xmlns="http://www.w3.org/2000/svg">
<g id="user 1" clip-path="url(#clip0_257_9)">
<g id="Group">
<g id="Group_2">
<path id="Vector" d="M10.0013 0C7.14418 0 4.80859 2.33559 4.80859 5.19275C4.80859 8.04991 7.14418 10.3855 10.0013 10.3855C12.8585 10.3855 15.1941 8.04991 15.1941 5.19275C15.1941 2.33559 12.8585 0 10.0013 0Z" fill="white"/>
</g>
</g>
<g id="Group_3">
<g id="Group_4">
<path id="Vector_2" d="M18.9149 14.5353C18.7789 14.1951 18.5975 13.8777 18.3934 13.5829C17.3503 12.0409 15.7404 11.0205 13.9263 10.7711C13.6996 10.7484 13.4501 10.7937 13.2687 10.9298C12.3163 11.6328 11.1826 11.9956 10.0034 11.9956C8.82423 11.9956 7.69046 11.6328 6.73808 10.9298C6.55665 10.7937 6.30722 10.7257 6.08048 10.7711C4.26642 11.0205 2.63378 12.0409 1.61338 13.5829C1.4093 13.8777 1.22788 14.2178 1.09185 14.5353C1.02384 14.6713 1.0465 14.8301 1.11451 14.9661C1.29593 15.2836 1.52267 15.6011 1.72675 15.8732C2.0442 16.304 2.38434 16.6895 2.76985 17.0523C3.0873 17.3697 3.4501 17.6645 3.81295 17.9593C5.60431 19.2972 7.75852 20.0001 9.98074 20.0001C12.203 20.0001 14.3572 19.2972 16.1485 17.9593C16.5113 17.6872 16.8741 17.3697 17.1916 17.0523C17.5544 16.6895 17.9172 16.304 18.2347 15.8732C18.4615 15.5784 18.6656 15.2836 18.847 14.9661C18.9603 14.8301 18.983 14.6713 18.9149 14.5353Z" fill="white"/>
</g>
</g>
</g>
<defs>
<clipPath id="clip0_257_9">
<rect width="20" height="20" fill="white"/>
</clipPath>
</defs>
</svg>
